<svg width="60" height="59" viewBox="0 0 60 59" fill="none" xmlns="http://www.w3.org/2000/svg">
<g clip-path="url(#clip0)">
<path d="M21.1118 11.6603C24.3853 11.6603 27.0413 9.04959 27.0413 5.82971C27.0413 2.60983 24.3852 0 21.1118 0C17.8374 0 15.1833 2.60983 15.1833 5.82971C15.1833 9.04959 17.8372 11.6603 21.1118 11.6603Z" fill="#CDDC39"/>
<path d="M54.6608 42.271L42.667 41.752L42.2898 33.4112C42.275 33.2447 42.2475 33.082 42.212 32.9203C42.0002 30.8073 41.3926 28.5751 40.4896 27.2165C39.5313 25.7756 36.5848 20.8872 35.6729 19.3725L40.1282 18.5465L48.0332 25.6651C48.9353 26.5513 50.3966 26.5513 51.2968 25.6651C52.1969 24.7791 52.1988 23.342 51.2968 22.456L44.0723 14.6004C43.3683 13.7608 42.665 13.1189 41.3357 12.927C41.3357 12.927 27.0983 12.2704 24.4867 12.8621C22.8559 13.232 20.0679 14.2449 18.7424 16.5314L14.5629 22.7823L4.64004 23.2306C3.36574 23.2306 2.33168 24.2465 2.33168 25.4995C2.33168 26.7527 3.36574 27.7685 4.64004 27.7685L16.0519 28.2828C16.0646 28.2828 16.0775 28.2817 16.0912 28.2808C16.9815 28.2934 17.8658 27.8934 18.4273 27.1294L22.0709 22.6013C22.0728 22.6031 22.0768 22.607 22.0768 22.607C22.0965 22.5762 22.1182 22.5471 22.1388 22.518L22.3062 22.3088C22.6125 21.9805 22.7937 22.0484 23.2152 22.7387C24.0178 24.0558 26.0268 28.0716 26.5624 29.3228C26.7939 29.8621 26.9152 30.3434 26.6954 30.9826C26.6776 31.0106 26.658 31.034 26.6422 31.062L21.0683 41.1129L13.639 54.5134C12.7812 55.9108 13.2373 57.7294 14.6602 58.5748C16.0812 59.4183 17.9307 58.968 18.7894 57.5706L27.3867 44.8635L32.9449 36.6497C33.2108 36.3098 33.5418 35.8623 33.6431 35.6184L33.8361 35.3327C33.851 35.3105 33.8609 35.2872 33.8746 35.265C33.9828 35.2166 34.0893 35.327 34.1286 35.7105C34.1286 35.7124 34.1305 35.7124 34.1316 35.7144L35.4551 45.4892C35.4895 45.8776 35.5861 46.2437 35.7337 46.5835C36.2794 47.9161 37.6048 48.8573 39.1549 48.8573L54.6605 48.1863C56.3208 48.1863 57.668 46.8615 57.668 45.2287C57.6684 43.5948 56.3212 42.271 54.6608 42.271Z" fill="#CDDC39"/>
</g>
<defs>
<clipPath id="clip0">
<rect width="60" height="59" fill="white"/>
</clipPath>
</defs>
</svg>
